<svg xmlns="http://www.w3.org/2000/svg" xmlns:xlink="http://www.w3.org/1999/xlink" width="370" zoomAndPan="magnify" viewBox="0 0 277.5 277.500005" height="370" preserveAspectRatio="xMidYMid meet" version="1.0"><defs><clipPath id="ae10960d43"><path d="M 0.148438 0.101562 L 276.949219 0.101562 L 276.949219 276.898438 L 0.148438 276.898438 Z M 0.148438 0.101562 " clip-rule="nonzero"/></clipPath><clipPath id="4f3da12050"><path d="M 138.550781 0.101562 C 62.113281 0.101562 0.148438 62.0625 0.148438 138.5 C 0.148438 214.9375 62.113281 276.898438 138.550781 276.898438 C 214.984375 276.898438 276.949219 214.9375 276.949219 138.5 C 276.949219 62.0625 214.984375 0.101562 138.550781 0.101562 Z M 138.550781 0.101562 " clip-rule="nonzero"/></clipPath><clipPath id="d9e996b4fd"><path d="M 77 62.03125 L 230 62.03125 L 230 214.753906 L 77 214.753906 Z M 77 62.03125 " clip-rule="nonzero"/></clipPath></defs><g clip-path="url(#ae10960d43)"><g clip-path="url(#4f3da12050)"><path fill="#f4ffff" d="M 0.148438 0.101562 L 276.949219 0.101562 L 276.949219 276.898438 L 0.148438 276.898438 Z M 0.148438 0.101562 " fill-opacity="1" fill-rule="nonzero"/></g></g><path fill="#000000" d="M 165.6875 138.582031 L 228.148438 201.042969 L 215.929688 213.257812 L 153.472656 150.800781 L 91.015625 213.257812 L 78.796875 201.042969 L 141.253906 138.582031 L 78.796875 76.125 L 91.015625 63.90625 L 153.472656 126.367188 L 215.929688 63.90625 L 228.148438 76.125 Z M 165.6875 138.582031 " fill-opacity="1" fill-rule="nonzero"/><g clip-path="url(#d9e996b4fd)"><path fill="#000000" d="M 215.929688 214.964844 C 215.496094 214.964844 215.054688 214.800781 214.722656 214.464844 L 153.472656 153.214844 L 92.222656 214.464844 C 91.902344 214.785156 91.464844 214.964844 91.015625 214.964844 C 90.5625 214.964844 90.125 214.785156 89.804688 214.464844 L 77.589844 202.25 C 76.921875 201.582031 76.921875 200.503906 77.589844 199.835938 L 138.839844 138.582031 L 77.589844 77.332031 C 76.921875 76.667969 76.921875 75.585938 77.589844 74.917969 L 89.804688 62.699219 C 90.125 62.378906 90.5625 62.199219 91.015625 62.199219 C 91.464844 62.199219 91.902344 62.378906 92.222656 62.699219 L 153.472656 123.949219 L 214.722656 62.699219 C 215.390625 62.035156 216.46875 62.035156 217.136719 62.699219 L 229.355469 74.917969 C 230.019531 75.582031 230.019531 76.664062 229.355469 77.332031 L 168.105469 138.582031 L 229.355469 199.835938 C 229.675781 200.152344 229.855469 200.589844 229.855469 201.042969 C 229.855469 201.492188 229.675781 201.929688 229.355469 202.25 L 217.136719 214.464844 C 216.804688 214.800781 216.367188 214.964844 215.929688 214.964844 Z M 153.472656 149.09375 C 153.90625 149.09375 154.347656 149.257812 154.679688 149.59375 L 215.929688 210.84375 L 225.734375 201.042969 L 164.480469 139.789062 C 164.160156 139.472656 163.980469 139.035156 163.980469 138.582031 C 163.980469 138.132812 164.160156 137.695312 164.480469 137.375 L 225.734375 76.125 L 215.929688 66.324219 L 154.679688 127.574219 C 154.015625 128.238281 152.929688 128.238281 152.265625 127.574219 L 91.015625 66.324219 L 81.210938 76.125 L 142.464844 137.375 C 143.128906 138.042969 143.128906 139.121094 142.464844 139.789062 L 81.210938 201.042969 L 91.015625 210.84375 L 152.265625 149.59375 C 152.597656 149.257812 153.035156 149.09375 153.472656 149.09375 Z M 153.472656 149.09375 " fill-opacity="1" fill-rule="nonzero"/></g></svg>