<svg xmlns="http://www.w3.org/2000/svg" xmlns:xlink="http://www.w3.org/1999/xlink" width="500" zoomAndPan="magnify" viewBox="0 0 375 149.999998" height="200" preserveAspectRatio="xMidYMid meet" version="1.0"><defs><g/></defs><g fill="#000000" fill-opacity="1"><g transform="translate(29.077036, 71.072726)"><g><path d="M 15.109375 -31.0625 C 17.046875 -31.0625 19.046875 -31.007812 21.109375 -30.90625 C 21.359375 -30.875 21.671875 -30.847656 22.046875 -30.828125 C 22.421875 -30.816406 22.878906 -30.796875 23.421875 -30.765625 C 24.453125 -30.703125 25.082031 -30.65625 25.3125 -30.625 L 27.390625 -30.53125 L 27.34375 -23.234375 C 27.269531 -23.234375 26.878906 -23.285156 26.171875 -23.390625 C 25.460938 -23.503906 24.546875 -23.644531 23.421875 -23.8125 C 22.296875 -23.9375 21.175781 -24.039062 20.0625 -24.125 C 18.957031 -24.207031 17.835938 -24.25 16.703125 -24.25 C 16.128906 -24.25 15.445312 -24.222656 14.65625 -24.171875 C 13.863281 -24.117188 13.117188 -23.988281 12.421875 -23.78125 C 11.734375 -23.570312 11.148438 -23.242188 10.671875 -22.796875 C 10.191406 -22.347656 9.953125 -21.703125 9.953125 -20.859375 C 9.953125 -20.085938 10.207031 -19.523438 10.71875 -19.171875 C 11.238281 -18.816406 11.816406 -18.5625 12.453125 -18.40625 C 12.804688 -18.300781 13.320312 -18.203125 14 -18.109375 C 14.675781 -18.015625 15.53125 -17.898438 16.5625 -17.765625 C 18.300781 -17.578125 19.765625 -17.398438 20.953125 -17.234375 C 22.148438 -17.078125 23.117188 -16.867188 23.859375 -16.609375 C 24.953125 -16.253906 25.898438 -15.75 26.703125 -15.09375 C 27.515625 -14.4375 28.175781 -13.679688 28.6875 -12.828125 C 29.207031 -11.972656 29.585938 -11.03125 29.828125 -10 C 30.066406 -8.96875 30.1875 -7.921875 30.1875 -6.859375 C 30.1875 -6.304688 30.175781 -5.804688 30.15625 -5.359375 C 30.144531 -4.910156 30.125 -4.523438 30.09375 -4.203125 C 29.832031 -2.304688 29.242188 -0.75 28.328125 0.46875 C 27.410156 1.695312 26.289062 2.65625 24.96875 3.34375 C 23.644531 4.039062 22.175781 4.523438 20.5625 4.796875 C 18.957031 5.078125 17.335938 5.21875 15.703125 5.21875 C 13.503906 5.21875 11.3125 4.972656 9.125 4.484375 C 6.9375 4.003906 4.828125 3.347656 2.796875 2.515625 L 2.46875 2.359375 L 2.421875 -1.734375 C 2.484375 -4.117188 2.53125 -5.3125 2.5625 -5.3125 C 2.6875 -5.3125 3.1875 -5.195312 4.0625 -4.96875 C 5.800781 -4.550781 7.535156 -4.210938 9.265625 -3.953125 C 11.003906 -3.703125 12.773438 -3.546875 14.578125 -3.484375 C 15.222656 -3.441406 15.78125 -3.429688 16.25 -3.453125 C 16.71875 -3.472656 17.082031 -3.5 17.34375 -3.53125 C 18.40625 -3.6875 19.253906 -3.957031 19.890625 -4.34375 C 20.535156 -4.726562 21.035156 -5.226562 21.390625 -5.84375 C 21.585938 -6.226562 21.6875 -6.789062 21.6875 -7.53125 C 21.6875 -8.5625 21.472656 -9.273438 21.046875 -9.671875 C 20.628906 -10.078125 19.890625 -10.378906 18.828125 -10.578125 C 18.578125 -10.640625 18.238281 -10.6875 17.8125 -10.71875 C 17.394531 -10.75 16.882812 -10.796875 16.28125 -10.859375 C 13.800781 -11.148438 11.710938 -11.488281 10.015625 -11.875 C 8.328125 -12.257812 6.953125 -12.757812 5.890625 -13.375 C 4.472656 -14.175781 3.457031 -15.226562 2.84375 -16.53125 C 2.238281 -17.84375 1.9375 -19.367188 1.9375 -21.109375 C 1.9375 -23.390625 2.472656 -25.316406 3.546875 -26.890625 C 4.628906 -28.472656 6.132812 -29.585938 8.0625 -30.234375 C 9.1875 -30.617188 10.34375 -30.851562 11.53125 -30.9375 C 12.726562 -31.019531 13.921875 -31.0625 15.109375 -31.0625 Z M 15.109375 -31.0625 "/></g></g></g><g fill="#000000" fill-opacity="1"><g transform="translate(61.18937, 71.072726)"><g><path d="M 1.453125 -30.765625 L 1.453125 -30.90625 L 9.65625 -30.90625 L 9.75 -30.28125 C 10.101562 -28.0625 10.335938 -26.289062 10.453125 -24.96875 C 10.566406 -23.644531 10.65625 -22.695312 10.71875 -22.125 C 10.71875 -22.09375 10.722656 -21.976562 10.734375 -21.78125 C 10.753906 -21.582031 10.78125 -21.363281 10.8125 -21.125 C 10.84375 -20.882812 10.875 -20.632812 10.90625 -20.375 C 10.945312 -20.125 10.984375 -19.898438 11.015625 -19.703125 C 11.046875 -19.410156 11.109375 -18.835938 11.203125 -17.984375 C 11.296875 -17.128906 11.414062 -16.144531 11.5625 -15.03125 C 11.707031 -13.925781 11.859375 -12.753906 12.015625 -11.515625 C 12.179688 -10.273438 12.335938 -9.140625 12.484375 -8.109375 C 12.628906 -7.078125 12.765625 -6.207031 12.890625 -5.5 C 13.023438 -4.789062 13.125 -4.40625 13.1875 -4.34375 L 13.234375 -4.390625 C 13.234375 -4.453125 13.378906 -5.175781 13.671875 -6.5625 C 14.472656 -10.332031 15.175781 -13.828125 15.78125 -17.046875 C 16.394531 -20.265625 16.929688 -23.242188 17.390625 -25.984375 C 17.742188 -27.878906 17.921875 -28.828125 17.921875 -28.828125 L 18.015625 -29.5625 L 18.640625 -29.5625 C 18.671875 -29.5625 18.835938 -29.5625 19.140625 -29.5625 C 19.453125 -29.5625 19.820312 -29.550781 20.25 -29.53125 C 20.6875 -29.519531 21.160156 -29.515625 21.671875 -29.515625 C 22.191406 -29.515625 22.695312 -29.515625 23.1875 -29.515625 L 27.09375 -29.515625 L 27.1875 -29.03125 C 27.1875 -29.03125 27.226562 -28.828125 27.3125 -28.421875 C 27.394531 -28.015625 27.5 -27.5 27.625 -26.875 C 27.75 -26.25 27.882812 -25.570312 28.03125 -24.84375 C 28.175781 -24.125 28.304688 -23.425781 28.421875 -22.75 C 28.535156 -22.070312 28.640625 -21.484375 28.734375 -20.984375 C 28.828125 -20.484375 28.894531 -20.15625 28.9375 -20 C 29.03125 -19.539062 29.097656 -19.164062 29.140625 -18.875 C 29.191406 -18.59375 29.234375 -18.398438 29.265625 -18.296875 C 29.296875 -18.234375 29.375 -17.875 29.5 -17.21875 C 29.632812 -16.5625 29.832031 -15.601562 30.09375 -14.34375 C 30.28125 -13.40625 30.460938 -12.507812 30.640625 -11.65625 C 30.816406 -10.8125 30.988281 -10 31.15625 -9.21875 C 31.15625 -9.125 31.175781 -8.957031 31.21875 -8.71875 C 31.269531 -8.476562 31.316406 -8.226562 31.359375 -7.96875 C 31.410156 -7.707031 31.460938 -7.472656 31.515625 -7.265625 C 31.566406 -7.054688 31.59375 -6.921875 31.59375 -6.859375 C 31.945312 -5.054688 32.1875 -4.15625 32.3125 -4.15625 C 32.34375 -4.21875 32.375 -4.351562 32.40625 -4.5625 C 32.4375 -4.769531 32.484375 -5.082031 32.546875 -5.5 C 32.578125 -5.726562 32.617188 -6.066406 32.671875 -6.515625 C 32.722656 -6.972656 32.796875 -7.554688 32.890625 -8.265625 C 32.953125 -8.578125 33.144531 -10.28125 33.46875 -13.375 C 33.53125 -13.664062 33.59375 -14.019531 33.65625 -14.4375 C 33.726562 -14.851562 33.796875 -15.269531 33.859375 -15.6875 C 33.921875 -16.113281 33.96875 -16.523438 34 -16.921875 C 34.03125 -17.328125 34.046875 -17.675781 34.046875 -17.96875 C 34.078125 -18.1875 34.125 -18.550781 34.1875 -19.0625 C 34.257812 -19.582031 34.3125 -19.941406 34.34375 -20.140625 C 34.5 -21.390625 34.625 -22.445312 34.71875 -23.3125 C 34.820312 -24.1875 34.90625 -24.882812 34.96875 -25.40625 C 35.195312 -27.082031 35.375 -28.382812 35.5 -29.3125 C 35.625 -30.25 35.703125 -30.703125 35.734375 -30.671875 L 35.78125 -30.90625 L 39.796875 -30.90625 C 42.429688 -30.84375 43.769531 -30.8125 43.8125 -30.8125 C 43.738281 -30.625 43.601562 -29.769531 43.40625 -28.25 C 43.21875 -26.738281 42.914062 -24.613281 42.5 -21.875 C 42.4375 -21.519531 42.375 -21.082031 42.3125 -20.5625 C 42.25 -20.050781 42.164062 -19.457031 42.0625 -18.78125 C 42.03125 -18.625 41.988281 -18.3125 41.9375 -17.84375 C 41.894531 -17.375 41.8125 -16.753906 41.6875 -15.984375 C 41.226562 -12.566406 40.789062 -9.148438 40.375 -5.734375 C 39.957031 -2.328125 39.554688 1.097656 39.171875 4.546875 L 39.078125 4.828125 L 33.03125 4.828125 L 27 4.78125 L 26.90625 4.390625 C 26.644531 2.847656 26.253906 0.726562 25.734375 -1.96875 C 25.222656 -4.675781 24.597656 -8.03125 23.859375 -12.03125 C 23.734375 -12.664062 23.585938 -13.410156 23.421875 -14.265625 C 23.265625 -15.117188 23.101562 -16.0625 22.9375 -17.09375 L 22.703125 -18.296875 L 22.5 -17.4375 C 22.28125 -16.4375 21.847656 -14.210938 21.203125 -10.765625 C 21.140625 -10.253906 21.070312 -9.8125 21 -9.4375 C 20.9375 -9.070312 20.875 -8.757812 20.8125 -8.5 C 20.65625 -7.59375 20.453125 -6.535156 20.203125 -5.328125 C 19.960938 -4.128906 19.71875 -2.753906 19.46875 -1.203125 C 19.300781 -0.460938 19.144531 0.3125 19 1.125 C 18.851562 1.945312 18.703125 2.8125 18.546875 3.71875 L 18.359375 4.828125 L 12.84375 4.828125 C 11.007812 4.859375 9.632812 4.875 8.71875 4.875 C 7.800781 4.875 7.328125 4.875 7.296875 4.875 C 7.265625 4.90625 7.195312 4.710938 7.09375 4.296875 C 7.03125 4.066406 6.953125 3.675781 6.859375 3.125 C 6.765625 2.582031 6.632812 1.863281 6.46875 0.96875 C 6.019531 -1.601562 5.640625 -3.789062 5.328125 -5.59375 C 5.023438 -7.40625 4.796875 -8.859375 4.640625 -9.953125 C 4.609375 -10.046875 4.445312 -11.039062 4.15625 -12.9375 C 4.09375 -13.394531 4.023438 -13.820312 3.953125 -14.21875 C 3.890625 -14.625 3.828125 -15.003906 3.765625 -15.359375 C 3.765625 -15.421875 3.75 -15.5625 3.71875 -15.78125 C 3.6875 -16.007812 3.644531 -16.257812 3.59375 -16.53125 C 3.550781 -16.8125 3.507812 -17.101562 3.46875 -17.40625 C 3.4375 -17.71875 3.390625 -17.96875 3.328125 -18.15625 C 3.203125 -18.925781 3.085938 -19.722656 2.984375 -20.546875 C 2.890625 -21.367188 2.78125 -22.234375 2.65625 -23.140625 C 2.53125 -23.972656 2.425781 -24.6875 2.34375 -25.28125 C 2.257812 -25.875 2.1875 -26.347656 2.125 -26.703125 C 1.894531 -28.023438 1.722656 -28.96875 1.609375 -29.53125 C 1.503906 -30.09375 1.453125 -30.503906 1.453125 -30.765625 Z M 1.453125 -30.765625 "/></g></g></g><g fill="#000000" fill-opacity="1"><g transform="translate(106.484667, 71.072726)"><g><path d="M 20.765625 -25.109375 C 18.222656 -25.109375 16.21875 -24.625 14.75 -23.65625 C 13.289062 -22.695312 12.332031 -20.945312 11.875 -18.40625 C 11.75 -17.789062 11.6875 -16.453125 11.6875 -14.390625 C 11.65625 -13.359375 11.644531 -12.476562 11.65625 -11.75 C 11.675781 -11.03125 11.703125 -10.445312 11.734375 -10 C 11.898438 -7.96875 12.382812 -6.421875 13.1875 -5.359375 C 13.988281 -4.296875 15.195312 -3.539062 16.8125 -3.09375 C 17.289062 -2.957031 18.191406 -2.890625 19.515625 -2.890625 C 20.285156 -2.890625 21.046875 -2.953125 21.796875 -3.078125 C 22.554688 -3.210938 23.257812 -3.441406 23.90625 -3.765625 C 24.550781 -4.085938 25.109375 -4.53125 25.578125 -5.09375 C 26.046875 -5.65625 26.390625 -6.375 26.609375 -7.25 C 26.742188 -7.632812 26.878906 -8.484375 27.015625 -9.796875 C 27.160156 -11.117188 27.234375 -12.941406 27.234375 -15.265625 C 27.234375 -16.421875 27.160156 -17.566406 27.015625 -18.703125 C 26.878906 -19.847656 26.582031 -20.878906 26.125 -21.796875 C 25.675781 -22.722656 25.023438 -23.484375 24.171875 -24.078125 C 23.316406 -24.671875 22.179688 -25.015625 20.765625 -25.109375 Z M 17.921875 -31.203125 C 18.660156 -31.265625 19.269531 -31.265625 19.75 -31.203125 C 20.84375 -31.171875 21.925781 -31.097656 23 -30.984375 C 24.082031 -30.867188 25.128906 -30.65625 26.140625 -30.34375 C 27.160156 -30.039062 28.132812 -29.628906 29.0625 -29.109375 C 30 -28.597656 30.859375 -27.925781 31.640625 -27.09375 C 33.597656 -25.132812 34.800781 -22.507812 35.25 -19.21875 C 35.351562 -18.414062 35.40625 -16.40625 35.40625 -13.1875 C 35.375 -11.539062 35.335938 -10.234375 35.296875 -9.265625 C 35.265625 -8.304688 35.21875 -7.648438 35.15625 -7.296875 C 34.800781 -5.234375 34.210938 -3.351562 33.390625 -1.65625 C 32.578125 0.03125 31.269531 1.46875 29.46875 2.65625 C 28.238281 3.488281 26.816406 4.125 25.203125 4.5625 C 23.597656 5 21.78125 5.21875 19.75 5.21875 C 14.601562 5.21875 10.613281 4.015625 7.78125 1.609375 C 4.945312 -0.785156 3.351562 -4.671875 3 -10.046875 C 2.96875 -10.554688 2.941406 -11.171875 2.921875 -11.890625 C 2.898438 -12.617188 2.910156 -13.453125 2.953125 -14.390625 C 2.984375 -15.835938 3.085938 -17.226562 3.265625 -18.5625 C 3.441406 -19.90625 3.757812 -21.179688 4.21875 -22.390625 C 4.6875 -23.597656 5.304688 -24.722656 6.078125 -25.765625 C 6.859375 -26.816406 7.875 -27.773438 9.125 -28.640625 C 11.445312 -30.148438 14.378906 -31.003906 17.921875 -31.203125 Z M 17.921875 -31.203125 "/></g></g></g><g fill="#000000" fill-opacity="1"><g transform="translate(144.77802, 71.072726)"><g><path d="M 20.328125 -25.21875 C 19.972656 -25.28125 19.398438 -25.316406 18.609375 -25.328125 C 17.828125 -25.347656 16.804688 -25.359375 15.546875 -25.359375 C 13.003906 -25.296875 11.671875 -25.226562 11.546875 -25.15625 C 11.484375 -25.09375 11.453125 -23.566406 11.453125 -20.578125 L 11.453125 -16.078125 L 14.578125 -16.078125 C 16.804688 -16.140625 18.320312 -16.191406 19.125 -16.234375 C 20.0625 -16.328125 20.800781 -16.503906 21.34375 -16.765625 C 22.957031 -17.566406 23.648438 -19.253906 23.421875 -21.828125 C 23.328125 -22.859375 23.046875 -23.640625 22.578125 -24.171875 C 22.109375 -24.703125 21.359375 -25.050781 20.328125 -25.21875 Z M 3.90625 -30.859375 C 3.9375 -30.890625 6.367188 -30.90625 11.203125 -30.90625 C 13.617188 -30.90625 15.535156 -30.894531 16.953125 -30.875 C 18.367188 -30.863281 19.300781 -30.84375 19.75 -30.8125 C 22.070312 -30.6875 23.960938 -30.375 25.421875 -29.875 C 26.890625 -29.375 28.109375 -28.640625 29.078125 -27.671875 C 30.109375 -26.640625 30.816406 -25.457031 31.203125 -24.125 C 31.585938 -22.789062 31.71875 -21.078125 31.59375 -18.984375 C 31.488281 -17.046875 31.019531 -15.359375 30.1875 -13.921875 C 29.351562 -12.492188 28.015625 -11.363281 26.171875 -10.53125 L 25.359375 -10.1875 L 27.1875 -6.609375 C 27.800781 -5.453125 28.304688 -4.4375 28.703125 -3.5625 C 29.109375 -2.695312 29.441406 -1.960938 29.703125 -1.359375 C 30.441406 0.285156 31.046875 1.628906 31.515625 2.671875 C 31.984375 3.722656 32.3125 4.472656 32.5 4.921875 L 23.765625 4.921875 C 23.273438 3.734375 22.628906 2.15625 21.828125 0.1875 C 21.023438 -1.769531 20.0625 -4.25 18.9375 -7.25 C 18.675781 -7.882812 18.488281 -8.367188 18.375 -8.703125 C 18.257812 -9.046875 18.1875 -9.234375 18.15625 -9.265625 C 18.125 -9.367188 17.03125 -9.421875 14.875 -9.421875 C 12.75 -9.421875 11.65625 -9.40625 11.59375 -9.375 C 11.5 -9.34375 11.453125 -6.941406 11.453125 -2.171875 L 11.453125 4.921875 L 3.953125 4.921875 L 3.90625 -1.109375 C 3.875 -3.109375 3.859375 -5.570312 3.859375 -8.5 C 3.859375 -11.425781 3.859375 -14.890625 3.859375 -18.890625 C 3.859375 -26.835938 3.875 -30.828125 3.90625 -30.859375 Z M 3.90625 -30.859375 "/></g></g></g><g fill="#000000" fill-opacity="1"><g transform="translate(178.677058, 71.072726)"><g><path d="M 3.953125 -30.8125 C 4.023438 -30.875 5.394531 -30.90625 8.0625 -30.90625 L 12.125 -30.90625 L 12.078125 -17.921875 C 12.046875 -13.609375 12.03125 -10.316406 12.03125 -8.046875 C 12.03125 -5.773438 12.015625 -4.476562 11.984375 -4.15625 C 11.941406 -3.894531 11.921875 -3.351562 11.921875 -2.53125 C 11.921875 -1.707031 11.921875 -0.609375 11.921875 0.765625 L 11.921875 4.921875 L 7.921875 4.921875 L 3.859375 4.875 L 3.90625 -12.890625 C 3.90625 -24.773438 3.921875 -30.75 3.953125 -30.8125 Z M 3.953125 -30.8125 "/></g></g></g><g fill="#590070" fill-opacity="1"><g transform="translate(181.510694, 102.403808)"><g><path d="M 6.171875 -10.828125 L 6.171875 -2.234375 L 17.890625 -2.234375 L 17.890625 0 L 3.46875 0 L 3.46875 -22.984375 L 17.640625 -22.984375 L 17.640625 -20.75 L 6.171875 -20.75 L 6.171875 -13.0625 L 16.28125 -13.0625 L 16.28125 -10.828125 Z M 6.171875 -10.828125 "/></g></g></g><g fill="#590070" fill-opacity="1"><g transform="translate(200.915923, 102.403808)"><g><path d="M 10.90625 -22.984375 C 13.226562 -22.984375 15.222656 -22.566406 16.890625 -21.734375 C 18.566406 -20.898438 19.859375 -19.628906 20.765625 -17.921875 C 21.671875 -16.210938 22.125 -14.066406 22.125 -11.484375 C 22.125 -8.910156 21.671875 -6.769531 20.765625 -5.0625 C 19.859375 -3.351562 18.566406 -2.082031 16.890625 -1.25 C 15.222656 -0.414062 13.226562 0 10.90625 0 L 3.46875 0 L 3.46875 -22.984375 Z M 10.640625 -2.296875 C 12.554688 -2.296875 14.140625 -2.59375 15.390625 -3.1875 C 16.648438 -3.789062 17.601562 -4.765625 18.25 -6.109375 C 18.90625 -7.460938 19.234375 -9.253906 19.234375 -11.484375 C 19.234375 -13.734375 18.90625 -15.53125 18.25 -16.875 C 17.601562 -18.21875 16.648438 -19.1875 15.390625 -19.78125 C 14.140625 -20.382812 12.554688 -20.6875 10.640625 -20.6875 L 6.171875 -20.6875 L 6.171875 -2.296875 Z M 10.640625 -2.296875 "/></g></g></g><g fill="#590070" fill-opacity="1"><g transform="translate(225.333515, 102.403808)"><g><path d="M 11.84375 0.328125 C 9.03125 0.328125 6.898438 -0.382812 5.453125 -1.8125 C 4.003906 -3.238281 3.28125 -5.359375 3.28125 -8.171875 L 3.28125 -22.984375 L 5.96875 -22.984375 L 5.96875 -8.203125 C 5.96875 -6.191406 6.453125 -4.679688 7.421875 -3.671875 C 8.390625 -2.671875 9.863281 -2.171875 11.84375 -2.171875 C 15.769531 -2.171875 17.734375 -4.179688 17.734375 -8.203125 L 17.734375 -22.984375 L 20.421875 -22.984375 L 20.421875 -8.171875 C 20.421875 -5.359375 19.695312 -3.238281 18.25 -1.8125 C 16.800781 -0.382812 14.664062 0.328125 11.84375 0.328125 Z M 11.84375 0.328125 "/></g></g></g><g fill="#590070" fill-opacity="1"><g transform="translate(249.012608, 102.403808)"><g><path d="M 12.703125 0.328125 C 10.691406 0.328125 8.898438 -0.128906 7.328125 -1.046875 C 5.753906 -1.972656 4.519531 -3.320312 3.625 -5.09375 C 2.738281 -6.875 2.296875 -9.003906 2.296875 -11.484375 C 2.296875 -13.972656 2.738281 -16.101562 3.625 -17.875 C 4.519531 -19.65625 5.753906 -21.003906 7.328125 -21.921875 C 8.898438 -22.847656 10.691406 -23.3125 12.703125 -23.3125 C 14.847656 -23.3125 16.632812 -22.90625 18.0625 -22.09375 C 19.488281 -21.28125 20.515625 -20.054688 21.140625 -18.421875 L 19.40625 -17.265625 L 19.015625 -17.265625 C 18.390625 -18.578125 17.570312 -19.507812 16.5625 -20.0625 C 15.5625 -20.613281 14.273438 -20.890625 12.703125 -20.890625 C 11.253906 -20.890625 9.96875 -20.566406 8.84375 -19.921875 C 7.726562 -19.273438 6.835938 -18.253906 6.171875 -16.859375 C 5.515625 -15.460938 5.1875 -13.671875 5.1875 -11.484375 C 5.1875 -9.304688 5.515625 -7.519531 6.171875 -6.125 C 6.835938 -4.738281 7.726562 -3.722656 8.84375 -3.078125 C 9.96875 -2.429688 11.253906 -2.109375 12.703125 -2.109375 C 14.367188 -2.109375 15.726562 -2.484375 16.78125 -3.234375 C 17.84375 -3.984375 18.628906 -5.195312 19.140625 -6.875 L 19.53125 -6.875 L 21.34375 -5.96875 C 20.800781 -3.9375 19.789062 -2.378906 18.3125 -1.296875 C 16.84375 -0.210938 14.972656 0.328125 12.703125 0.328125 Z M 12.703125 0.328125 "/></g></g></g><g fill="#590070" fill-opacity="1"><g transform="translate(271.544672, 102.403808)"><g><path d="M 20.6875 0 L 17.796875 0 L 15.671875 -6.296875 L 5.875 -6.296875 L 3.734375 0 L 0.90625 0 L 8.921875 -22.984375 L 12.671875 -22.984375 Z M 10.578125 -20.203125 L 6.625 -8.5625 L 14.90625 -8.5625 L 10.96875 -20.203125 Z M 10.578125 -20.203125 "/></g></g></g><g fill="#590070" fill-opacity="1"><g transform="translate(293.133971, 102.403808)"><g><path d="M 17.9375 -22.984375 L 17.9375 -20.6875 L 10.734375 -20.6875 L 10.734375 0 L 8.046875 0 L 8.046875 -20.6875 L 0.84375 -20.6875 L 0.84375 -22.984375 Z M 17.9375 -22.984375 "/></g></g></g><g fill="#590070" fill-opacity="1"><g transform="translate(311.894978, 102.403808)"><g><path d="M 6.171875 0 L 3.46875 0 L 3.46875 -22.984375 L 6.171875 -22.984375 Z M 6.171875 0 "/></g></g></g><g fill="#590070" fill-opacity="1"><g transform="translate(321.558311, 102.403808)"><g><path d="M 12.609375 0.328125 C 10.617188 0.328125 8.847656 -0.0976562 7.296875 -0.953125 C 5.742188 -1.816406 4.519531 -3.128906 3.625 -4.890625 C 2.738281 -6.660156 2.296875 -8.859375 2.296875 -11.484375 C 2.296875 -14.117188 2.738281 -16.316406 3.625 -18.078125 C 4.519531 -19.847656 5.742188 -21.160156 7.296875 -22.015625 C 8.847656 -22.878906 10.617188 -23.3125 12.609375 -23.3125 C 14.597656 -23.3125 16.367188 -22.878906 17.921875 -22.015625 C 19.472656 -21.160156 20.691406 -19.847656 21.578125 -18.078125 C 22.472656 -16.316406 22.921875 -14.117188 22.921875 -11.484375 C 22.921875 -8.859375 22.472656 -6.660156 21.578125 -4.890625 C 20.691406 -3.128906 19.472656 -1.816406 17.921875 -0.953125 C 16.367188 -0.0976562 14.597656 0.328125 12.609375 0.328125 Z M 12.609375 -2.171875 C 14.992188 -2.171875 16.820312 -2.914062 18.09375 -4.40625 C 19.375 -5.894531 20.015625 -8.253906 20.015625 -11.484375 C 20.015625 -14.710938 19.375 -17.070312 18.09375 -18.5625 C 16.820312 -20.0625 14.992188 -20.8125 12.609375 -20.8125 C 7.660156 -20.8125 5.1875 -17.703125 5.1875 -11.484375 C 5.1875 -5.273438 7.660156 -2.171875 12.609375 -2.171875 Z M 12.609375 -2.171875 "/></g></g></g><g fill="#590070" fill-opacity="1"><g transform="translate(346.76154, 102.403808)"><g><path d="M 6.109375 0 L 3.46875 0 L 3.46875 -22.984375 L 6.796875 -22.984375 L 18 -5.421875 L 18.390625 -5.484375 L 18.390625 -22.984375 L 21.015625 -22.984375 L 21.015625 0 L 18.1875 0 L 6.5 -18.78125 L 6.109375 -18.71875 Z M 6.109375 0 "/></g></g></g><g fill="#ff3131" fill-opacity="1"><g transform="translate(37.211679, 42.39622)"><g><path d="M -11.515625 3.375 C -11.546875 3.40625 -12.867188 3.421875 -15.484375 3.421875 L -19.328125 3.421875 L -19.328125 -5.546875 L -15.703125 -5.484375 L -11.734375 -5.484375 L -11.40625 -5.4375 L -11.40625 -1.09375 C -11.40625 1.8125 -11.441406 3.300781 -11.515625 3.375 Z M -14.671875 36.015625 C -16.117188 36.015625 -17.582031 35.90625 -19.0625 35.6875 C -20.550781 35.46875 -21.914062 35.066406 -23.15625 34.484375 C -24.40625 33.910156 -25.472656 33.097656 -26.359375 32.046875 C -27.253906 30.992188 -27.863281 29.632812 -28.1875 27.96875 C -28.289062 27.25 -28.328125 26.414062 -28.296875 25.46875 C -28.265625 23.550781 -27.757812 21.78125 -26.78125 20.15625 C -26.445312 19.601562 -25.210938 18.316406 -23.078125 16.296875 C -22.316406 15.535156 -21.707031 14.914062 -21.25 14.4375 C -20.800781 13.96875 -20.488281 13.644531 -20.3125 13.46875 C -20.132812 13.289062 -19.972656 13.109375 -19.828125 12.921875 C -19.679688 12.742188 -19.570312 12.566406 -19.5 12.390625 L -19.0625 11.515625 L -19.0625 9.78125 L -19.015625 8.09375 L -11.078125 8.09375 L -11.078125 9.671875 C -11.078125 11.734375 -11.421875 13.398438 -12.109375 14.671875 C -12.546875 15.429688 -13.742188 16.785156 -15.703125 18.734375 C -16.460938 19.535156 -17.082031 20.207031 -17.5625 20.75 C -18.050781 21.289062 -18.425781 21.707031 -18.6875 22 C -18.90625 22.289062 -19.101562 22.570312 -19.28125 22.84375 C -19.457031 23.113281 -19.601562 23.394531 -19.71875 23.6875 C -19.820312 23.9375 -19.898438 24.25 -19.953125 24.625 C -20.015625 25.007812 -20.035156 25.390625 -20.015625 25.765625 C -19.992188 26.148438 -19.957031 26.519531 -19.90625 26.875 C -19.851562 27.238281 -19.769531 27.53125 -19.65625 27.75 C -19.332031 28.476562 -18.890625 28.992188 -18.328125 29.296875 C -17.765625 29.609375 -16.941406 29.765625 -15.859375 29.765625 C -15.097656 29.765625 -14.3125 29.691406 -13.5 29.546875 C -12.6875 29.398438 -11.898438 29.160156 -11.140625 28.828125 C -10.378906 28.503906 -9.679688 28.085938 -9.046875 27.578125 C -8.410156 27.078125 -7.894531 26.484375 -7.5 25.796875 C -7.28125 25.359375 -7.171875 25.140625 -7.171875 25.140625 L -2.9375 31.609375 C -4.675781 32.878906 -6.519531 33.929688 -8.46875 34.765625 C -10.425781 35.597656 -12.492188 36.015625 -14.671875 36.015625 Z M -14.671875 36.015625 "/></g></g></g></svg>