<svg xmlns="http://www.w3.org/2000/svg" xmlns:xlink="http://www.w3.org/1999/xlink" width="512" zoomAndPan="magnify" viewBox="0 0 384 383.999986" height="512" preserveAspectRatio="xMidYMid meet" version="1.0"><defs><g/><clipPath id="9f551724c4"><path d="M 8.839844 4.421875 L 384 4.421875 L 384 379.578125 L 8.839844 379.578125 Z M 8.839844 4.421875 " clip-rule="nonzero"/></clipPath><clipPath id="8eceba838a"><path d="M 196.421875 4.421875 C 92.824219 4.421875 8.839844 88.402344 8.839844 192 C 8.839844 295.597656 92.824219 379.578125 196.421875 379.578125 C 300.019531 379.578125 384 295.597656 384 192 C 384 88.402344 300.019531 4.421875 196.421875 4.421875 Z M 196.421875 4.421875 " clip-rule="nonzero"/></clipPath></defs><g clip-path="url(#9f551724c4)"><g clip-path="url(#8eceba838a)"><path fill="#38b6ff" d="M 8.839844 4.421875 L 384 4.421875 L 384 379.578125 L 8.839844 379.578125 Z M 8.839844 4.421875 " fill-opacity="1" fill-rule="nonzero"/></g></g><g fill="#ffffff" fill-opacity="1"><g transform="translate(286.196459, 35.850275)"><g><path d="M -58.75 106.484375 C -58.195312 115.523438 -58.503906 123.113281 -59.671875 129.25 C -60.835938 135.394531 -63.175781 141.09375 -66.6875 146.34375 C -70.195312 151.601562 -75.347656 157.316406 -82.140625 163.484375 L -97.9375 178.0625 C -105.6875 185.175781 -111.082031 191.570312 -114.125 197.25 C -117.164062 202.925781 -118.476562 209.265625 -118.0625 216.265625 C -117.539062 224.796875 -114.101562 231.390625 -107.75 236.046875 C -101.40625 240.710938 -92.441406 242.695312 -80.859375 242 C -69.265625 241.289062 -59.398438 237.878906 -51.265625 231.765625 C -43.140625 225.660156 -36.144531 217.257812 -30.28125 206.5625 L -25.9375 205.53125 L 7.453125 237.640625 C -2.191406 253.421875 -14.226562 265.644531 -28.65625 274.3125 C -43.09375 282.988281 -60.625 287.945312 -81.25 289.1875 C -100.726562 290.363281 -117.234375 288.390625 -130.765625 283.265625 C -144.304688 278.140625 -154.578125 270.550781 -161.578125 260.5 C -168.578125 250.445312 -172.484375 238.734375 -173.296875 225.359375 C -174.171875 210.710938 -171.898438 197.953125 -166.484375 187.078125 C -161.078125 176.210938 -152.429688 165.4375 -140.546875 154.75 L -122.9375 138.9375 C -116.25 133.03125 -111.859375 127.804688 -109.765625 123.265625 C -107.679688 118.734375 -106.859375 112.835938 -107.296875 105.578125 L -107.671875 99.46875 L -59.34375 96.546875 Z M -89.3125 3.484375 C -82.6875 3.078125 -76.773438 4.054688 -71.578125 6.421875 C -66.390625 8.796875 -62.285156 12.253906 -59.265625 16.796875 C -56.242188 21.347656 -54.554688 26.550781 -54.203125 32.40625 C -53.835938 38.394531 -54.878906 43.859375 -57.328125 48.796875 C -59.785156 53.734375 -63.445312 57.691406 -68.3125 60.671875 C -73.1875 63.648438 -78.9375 65.34375 -85.5625 65.75 C -95.488281 66.34375 -103.65625 63.890625 -110.0625 58.390625 C -116.46875 52.898438 -119.941406 45.640625 -120.484375 36.609375 C -121.023438 27.554688 -118.445312 19.921875 -112.75 13.703125 C -107.050781 7.484375 -99.238281 4.078125 -89.3125 3.484375 Z M -89.3125 3.484375 "/></g></g></g></svg>